{
	"accessors" : 
	[
		{
			"bufferView" : 2,
			"byteOffset" : 0,
			"componentType" : 5126,
			"count" : 3048,
			"max" : 
			[
				1,
				1,
				1,
				1
			],
			"min" : 
			[
				0,
				0.1011451631784439,
				0.1275297701358795,
				1
			],
			"name" : "accessor_color_m0-PolyPaper21_-455670",
			"type" : "VEC4"
		},
		{
			"bufferView" : 2,
			"byteOffset" : 48768,
			"componentType" : 5126,
			"count" : 3048,
			"max" : 
			[
				1,
				1,
				1,
				1
			],
			"min" : 
			[
				0,
				0.1011451631784439,
				0.1275297701358795,
				1
			],
			"name" : "accessor_color_m2-PolyPaper17_-455682",
			"type" : "VEC4"
		},
		{
			"bufferView" : 2,
			"byteOffset" : 97536,
			"componentType" : 5126,
			"count" : 192,
			"max" : 
			[
				1,
				1,
				1,
				1
			],
			"min" : 
			[
				0.05637409910559654,
				0.1011451631784439,
				0.1275297701358795,
				1
			],
			"name" : "accessor_color_m3-PolyPaper17_-455688",
			"type" : "VEC4"
		},
		{
			"bufferView" : 0,
			"byteOffset" : 0,
			"componentType" : 5123,
			"count" : 4572,
			"max" : 
			[
				3047
			],
			"min" : 
			[
				0
			],
			"name" : "accessor_indices_0_m0-PolyPaper21_-455670",
			"type" : "SCALAR"
		},
		{
			"bufferView" : 0,
			"byteOffset" : 9144,
			"componentType" : 5123,
			"count" : 4572,
			"max" : 
			[
				3047
			],
			"min" : 
			[
				0
			],
			"name" : "accessor_indices_0_m2-PolyPaper17_-455682",
			"type" : "SCALAR"
		},
		{
			"bufferView" : 0,
			"byteOffset" : 18288,
			"componentType" : 5123,
			"count" : 288,
			"max" : 
			[
				191
			],
			"min" : 
			[
				0
			],
			"name" : "accessor_indices_0_m3-PolyPaper17_-455688",
			"type" : "SCALAR"
		},
		{
			"bufferView" : 1,
			"byteOffset" : 36576,
			"componentType" : 5126,
			"count" : 3048,
			"max" : 
			[
				1,
				1,
				1
			],
			"min" : 
			[
				-1,
				-1,
				-1
			],
			"name" : "accessor_normal_m0-PolyPaper21_-455670",
			"type" : "VEC3"
		},
		{
			"bufferView" : 1,
			"byteOffset" : 109728,
			"componentType" : 5126,
			"count" : 3048,
			"max" : 
			[
				1,
				1,
				1
			],
			"min" : 
			[
				-1,
				-1,
				-1
			],
			"name" : "accessor_normal_m2-PolyPaper17_-455682",
			"type" : "VEC3"
		},
		{
			"bufferView" : 1,
			"byteOffset" : 148608,
			"componentType" : 5126,
			"count" : 192,
			"max" : 
			[
				1,
				1,
				1
			],
			"min" : 
			[
				-1,
				-1,
				-1
			],
			"name" : "accessor_normal_m3-PolyPaper17_-455688",
			"type" : "VEC3"
		},
		{
			"bufferView" : 1,
			"byteOffset" : 0,
			"componentType" : 5126,
			"count" : 3048,
			"max" : 
			[
				-0.04007127,
				1.290075,
				0.7599637
			],
			"min" : 
			[
				-0.9500716,
				1.010032,
				-0.3400366
			],
			"name" : "accessor_position_m0-PolyPaper21_-455670",
			"type" : "VEC3"
		},
		{
			"bufferView" : 1,
			"byteOffset" : 73152,
			"componentType" : 5126,
			"count" : 3048,
			"max" : 
			[
				-0.1000369,
				1.302612,
				0.7099996
			],
			"min" : 
			[
				-0.900039,
				1.009988,
				-0.2800586
			],
			"name" : "accessor_position_m2-PolyPaper17_-455682",
			"type" : "VEC3"
		},
		{
			"bufferView" : 1,
			"byteOffset" : 146304,
			"componentType" : 5126,
			"count" : 192,
			"max" : 
			[
				-0.1000016,
				1.099953,
				0.7100809
			],
			"min" : 
			[
				-0.8299509,
				1.010052,
				-0.1791689
			],
			"name" : "accessor_position_m3-PolyPaper17_-455688",
			"type" : "VEC3"
		}
	],
	"asset" : 
	{
		"copyright" : "Unknown",
		"generator" : "glTF 1-to-2 Upgrader for Google Blocks",
		"version" : "2.0"
	},
	"bufferViews" : 
	[
		{
			"buffer" : 0,
			"byteLength" : 18864,
			"byteOffset" : 0,
			"name" : "ushortBufferView",
			"target" : 34963
		},
		{
			"buffer" : 0,
			"byteLength" : 150912,
			"byteOffset" : 18864,
			"byteStride" : 12,
			"name" : "vec3BufferView",
			"target" : 34962
		},
		{
			"buffer" : 0,
			"byteLength" : 100608,
			"byteOffset" : 169776,
			"byteStride" : 16,
			"name" : "vec4BufferView",
			"target" : 34962
		}
	],
	"buffers" : 
	[
		{
			"byteLength" : 270384,
			"name" : "model",
			"uri" : "model.bin"
		}
	],
	"materials" : 
	[
		{
			"alphaMode" : "OPAQUE",
			"doubleSided" : false,
			"name" : "BlocksPaper",
			"pbrMetallicRoughness" : 
			{
				"baseColorFactor" : 
				[
					1,
					1,
					1,
					1
				],
				"metallicFactor" : 0,
				"roughnessFactor" : 0.6
			}
		},
		{
			"alphaMode" : "BLEND",
			"doubleSided" : false,
			"name" : "BlocksGlass",
			"pbrMetallicRoughness" : 
			{
				"baseColorFactor" : 
				[
					0.2,
					0.2,
					1,
					0.3
				],
				"metallicFactor" : 1,
				"roughnessFactor" : 0.4
			}
		},
		{
			"alphaMode" : "OPAQUE",
			"doubleSided" : true,
			"name" : "BlocksGem",
			"pbrMetallicRoughness" : 
			{
				"baseColorFactor" : 
				[
					1,
					0.4,
					1,
					1
				],
				"metallicFactor" : 0,
				"roughnessFactor" : 0.1
			}
		}
	],
	"meshes" : 
	[
		{
			"name" : "mesh_m0-PolyPaper21_-455670",
			"primitives" : 
			[
				{
					"attributes" : 
					{
						"COLOR_0" : 0,
						"NORMAL" : 6,
						"POSITION" : 9
					},
					"indices" : 3,
					"material" : 0,
					"mode" : 4
				}
			]
		},
		{
			"name" : "mesh_m2-PolyPaper17_-455682",
			"primitives" : 
			[
				{
					"attributes" : 
					{
						"COLOR_0" : 1,
						"NORMAL" : 7,
						"POSITION" : 10
					},
					"indices" : 4,
					"material" : 0,
					"mode" : 4
				}
			]
		},
		{
			"name" : "mesh_m3-PolyPaper17_-455688",
			"primitives" : 
			[
				{
					"attributes" : 
					{
						"COLOR_0" : 2,
						"NORMAL" : 8,
						"POSITION" : 11
					},
					"indices" : 5,
					"material" : 0,
					"mode" : 4
				}
			]
		}
	],
	"nodes" : 
	[
		{
			"matrix" : 
			[
				1,
				0,
				0,
				0,
				0,
				1,
				0,
				0,
				0,
				0,
				1,
				0,
				0,
				0,
				0,
				1
			],
			"mesh" : 0,
			"name" : "node_MeshObject-1683890176-PolyPaper21"
		},
		{
			"matrix" : 
			[
				1,
				0,
				0,
				0,
				0,
				1,
				0,
				0,
				0,
				0,
				1,
				0,
				0,
				0,
				0,
				1
			],
			"mesh" : 2,
			"name" : "node_MeshObject1035842560-PolyPaper17"
		},
		{
			"matrix" : 
			[
				1,
				0,
				0,
				0,
				0,
				1,
				0,
				0,
				0,
				0,
				1,
				0,
				0,
				0,
				0,
				1
			],
			"mesh" : 1,
			"name" : "node_MeshObject336820224-PolyPaper17"
		}
	],
	"scene" : 0,
	"scenes" : 
	[
		{
			"extras" : {},
			"name" : "defaultScene",
			"nodes" : 
			[
				0,
				2,
				1
			]
		}
	]
}